<?xml version="1.0" encoding="UTF-8"?>
<svg version="1.1" xmlns="http://www.w3.org/2000/svg" width="134" height="136">
<path d="M0 0 C44.22 0 88.44 0 134 0 C134 44.88 134 89.76 134 136 C89.78 136 45.56 136 0 136 C0 91.12 0 46.24 0 0 Z " fill="#FCFCFC" transform="translate(0,0)"/>
<path d="M0 0 C44.22 0 88.44 0 134 0 C134 44.88 134 89.76 134 136 C89.78 136 45.56 136 0 136 C0 91.12 0 46.24 0 0 Z M11.1875 12.875 C7.04118836 18.79830234 5.55284754 23.29619315 5.58007812 30.50878906 C5.57160858 31.34216293 5.56313904 32.1755368 5.55441284 33.03416443 C5.53109261 35.77814169 5.53001974 38.52155629 5.53125 41.265625 C5.52414373 43.18365704 5.51644405 45.10168696 5.50817871 47.01971436 C5.49474407 51.03777982 5.49315982 55.05564886 5.49902344 59.07373047 C5.50490838 64.20265987 5.47437314 69.33063904 5.43390656 74.45938492 C5.40794965 78.42131558 5.40515957 82.38302015 5.40879822 86.34502411 C5.40711341 88.2347222 5.39753288 90.12443146 5.37965393 92.01404572 C5.08610529 107.4558319 5.08610529 107.4558319 12.47814941 120.62188721 C17.95531672 125.58173964 23.25894321 126.30031396 30.39526367 126.30639648 C31.22849152 126.31472 32.06171936 126.32304352 32.92019653 126.33161926 C35.66950181 126.35567428 38.41856945 126.36448713 41.16796875 126.37109375 C43.08742847 126.38006554 45.0068875 126.38918749 46.92634583 126.39845276 C50.95034481 126.41493454 54.97426069 126.42264104 58.99829102 126.42553711 C64.13505579 126.43091114 69.27103055 126.46855425 74.40757275 126.51428127 C78.37377209 126.54414419 82.33978363 126.55126272 86.30608559 126.55226326 C88.19858723 126.55644948 90.09109027 126.56881905 91.98348045 126.58978081 C108.05088168 126.8332878 108.05088168 126.8332878 121.4375 118.625 C125.18570955 112.32800796 126.44602659 107.57939519 126.40405273 100.34594727 C126.41434761 99.09084854 126.41434761 99.09084854 126.42485046 97.81039429 C126.44305518 95.06222249 126.43929008 92.31462503 126.43359375 89.56640625 C126.43815857 87.64501257 126.44346504 85.72362053 126.44947815 83.80223083 C126.45839682 79.78174187 126.45600026 75.76145168 126.44604492 71.7409668 C126.43455654 66.60189874 126.45477116 61.46351795 126.48396206 56.32454014 C126.50235333 52.35841044 126.50202577 48.39244455 126.49632454 44.42628288 C126.49617168 42.53215508 126.50218623 40.63801593 126.51461601 38.74392891 C126.52957986 36.09000286 126.51880997 33.43733533 126.50170898 30.78344727 C126.51137695 30.00969254 126.52104492 29.23593781 126.53100586 28.43873596 C126.43631986 21.38203487 124.18240139 16.18240139 119.1875 11.1875 C112.82444733 6.82069915 107.90602795 5.55207804 100.34594727 5.59594727 C99.50921478 5.58908401 98.6724823 5.58222076 97.81039429 5.57514954 C95.06222249 5.55694482 92.31462503 5.56070992 89.56640625 5.56640625 C87.64501257 5.56184143 85.72362053 5.55653496 83.80223083 5.55052185 C79.78174187 5.54160318 75.76145168 5.54399974 71.7409668 5.55395508 C66.60189874 5.56544346 61.46351795 5.54522884 56.32454014 5.51603794 C52.35841044 5.49764667 48.39244455 5.49797423 44.42628288 5.50367546 C42.53215508 5.50382832 40.63801593 5.49781377 38.74392891 5.48538399 C36.09000286 5.47042014 33.43733533 5.48119003 30.78344727 5.49829102 C30.00969254 5.48862305 29.23593781 5.47895508 28.43873596 5.46899414 C21.63716218 5.56025688 15.75622648 7.6737044 11.1875 12.875 Z " fill="#FEFEFE" transform="translate(0,0)"/>
<path d="M0 0 C0.83322784 -0.00832352 1.66645569 -0.01664703 2.52493286 -0.02522278 C5.27423814 -0.0492778 8.02330577 -0.05809065 10.77270508 -0.06469727 C12.6921648 -0.07366906 14.61162383 -0.082791 16.53108215 -0.09205627 C20.55508114 -0.10853805 24.57899702 -0.11624455 28.60302734 -0.11914062 C33.73979212 -0.12451466 38.87576688 -0.16215776 44.01230907 -0.20788479 C47.97850842 -0.23774771 51.94451995 -0.24486623 55.91082191 -0.24586678 C57.80332356 -0.25005299 59.6958266 -0.26242256 61.58821678 -0.28338432 C82.24154511 -0.49389452 82.24154511 -0.49389452 90.22648621 6.78468323 C95.18679723 12.26131692 95.90505051 17.56560068 95.91113281 24.70166016 C95.91945633 25.534888 95.92777985 26.36811584 95.93635559 27.22659302 C95.96041061 29.9758983 95.96922346 32.72496593 95.97583008 35.47436523 C95.98480187 37.39382496 95.99392381 39.31328398 96.00318909 41.23274231 C96.01967087 45.25674129 96.02737737 49.28065718 96.03027344 53.3046875 C96.03564747 58.44145228 96.07329057 63.57742703 96.1190176 68.71396923 C96.14888052 72.68016858 96.15599904 76.64618011 96.15699959 80.61248207 C96.1611858 82.50498372 96.17355538 84.39748675 96.19451714 86.28987694 C96.40916565 107.34921903 96.40916565 107.34921903 88.22973633 115.74389648 C81.93274429 119.49210603 77.18413152 120.75242308 69.95068359 120.71044922 C68.69558487 120.72074409 68.69558487 120.72074409 67.41513062 120.73124695 C64.66695882 120.74945166 61.91936136 120.74568656 59.17114258 120.73999023 C57.2497489 120.74455505 55.32835685 120.74986152 53.40696716 120.75587463 C49.3864782 120.7647933 45.36618801 120.76239675 41.34570312 120.75244141 C36.20663507 120.74095303 31.06825428 120.76116765 25.92927647 120.79035854 C21.96314676 120.80874981 17.99718088 120.80842225 14.03101921 120.80272102 C12.13689141 120.80256817 10.24275226 120.80858272 8.34866524 120.8210125 C5.69473919 120.83597634 3.04207166 120.82520645 0.38818359 120.80810547 C-0.38557114 120.81777344 -1.15932587 120.82744141 -1.95652771 120.83740234 C-9.0132288 120.74271634 -14.21286228 118.48879788 -19.20776367 113.49389648 C-23.56698575 107.14188717 -24.84375473 102.21563275 -24.81518555 94.66821289 C-24.82365509 93.8330867 -24.83212463 92.99796051 -24.84085083 92.13752747 C-24.8641285 89.39418034 -24.86524517 86.65139714 -24.86401367 83.90795898 C-24.87112103 81.98896056 -24.87882086 80.06996425 -24.88708496 78.15097046 C-24.90050873 74.13468515 -24.90210809 70.11859634 -24.89624023 66.10229492 C-24.8903474 60.97217577 -24.92092842 55.84300405 -24.96135712 50.71306801 C-24.98728998 46.75117979 -24.99010644 42.78951799 -24.98646545 38.82755661 C-24.98815159 36.93703201 -24.9977451 35.04649639 -25.01560974 33.15605545 C-25.1817927 13.39673143 -25.1817927 13.39673143 -17.91711426 5.75064087 C-12.40430546 0.74535805 -7.20333234 0.00613964 0 0 Z M-13.75210571 16.05203247 C-14.72734257 19.47038227 -14.68998583 22.85117813 -14.68579102 26.3762207 C-14.69250824 27.18646698 -14.69922546 27.99671326 -14.70614624 28.83151245 C-14.72513271 31.50809881 -14.72905075 34.18443449 -14.73120117 36.86108398 C-14.73762866 38.72429507 -14.74435699 40.58750515 -14.75137329 42.45071411 C-14.76334768 46.35624532 -14.76705395 50.26168806 -14.76586914 54.16723633 C-14.76566595 59.16643756 -14.79296787 64.16507035 -14.82741356 69.16413689 C-14.84967483 73.0126505 -14.85370692 76.86102714 -14.85264969 80.70959854 C-14.85500682 82.55235885 -14.86383666 84.39512286 -14.87931442 86.23781967 C-14.89895893 88.81820991 -14.89314286 91.39737227 -14.88110352 93.9777832 C-14.89234253 94.7353894 -14.90358154 95.49299561 -14.91516113 96.27355957 C-14.85428919 101.42005239 -13.72814084 104.39568558 -10.39526367 108.30639648 C-6.85774783 111.05602485 -2.62017721 110.60203458 1.67456055 110.59692383 C2.48480682 110.60364105 3.2950531 110.61035828 4.12985229 110.61727905 C6.80643865 110.63626553 9.48277434 110.64018357 12.15942383 110.64233398 C14.02263492 110.64876147 15.88584499 110.6554898 17.74905396 110.6625061 C21.65458516 110.67448049 25.5600279 110.67818676 29.46557617 110.67700195 C34.4647774 110.67679876 39.46341019 110.70410069 44.46247673 110.73854637 C48.31099034 110.76080764 52.15936698 110.76483973 56.00793839 110.7637825 C57.85069869 110.76613963 59.6934627 110.77496947 61.53615952 110.79044724 C64.11654975 110.81009174 66.69571211 110.80427567 69.27612305 110.79223633 C70.03372925 110.80347534 70.79133545 110.81471436 71.57189941 110.82629395 C76.71839223 110.765422 79.69402543 109.63927365 83.60473633 106.30639648 C86.35436469 102.76888064 85.90037443 98.53131002 85.89526367 94.23657227 C85.9019809 93.42632599 85.90869812 92.61607971 85.9156189 91.78128052 C85.93460537 89.10469416 85.93852341 86.42835848 85.94067383 83.75170898 C85.94710132 81.8884979 85.95382964 80.02528782 85.96084595 78.16207886 C85.97282034 74.25654765 85.9765266 70.35110491 85.9753418 66.44555664 C85.9751386 61.44635541 86.00244053 56.44772262 86.03688622 51.44865608 C86.05914749 47.60014247 86.06317957 43.75176583 86.06212234 39.90319443 C86.06447947 38.06043412 86.07330932 36.21767011 86.08878708 34.3749733 C86.10843158 31.79458306 86.10261551 29.2154207 86.09057617 26.63500977 C86.10181519 25.87740356 86.1130542 25.11979736 86.12463379 24.3392334 C86.06376184 19.19274058 84.93761349 16.21710739 81.60473633 12.30639648 C78.06722048 9.55676812 73.82964986 10.01075839 69.53491211 10.01586914 C68.72466583 10.00915192 67.91441956 10.00243469 67.07962036 9.99551392 C64.40303401 9.97652744 61.72669832 9.9726094 59.05004883 9.97045898 C57.18683774 9.96403149 55.32362767 9.95730317 53.4604187 9.95028687 C49.55488749 9.93831248 45.64944475 9.93460621 41.74389648 9.93579102 C36.74469525 9.93599421 31.74606246 9.90869228 26.74699593 9.8742466 C22.89848232 9.85198532 19.05010567 9.84795324 15.20153427 9.84901047 C13.35877397 9.84665334 11.51600995 9.8378235 9.67331314 9.82234573 C7.0929229 9.80270123 4.51376055 9.8085173 1.93334961 9.82055664 C0.79694031 9.80369812 0.79694031 9.80369812 -0.36242676 9.78649902 C-6.16061892 9.85507917 -10.14187408 11.40731328 -13.75210571 16.05203247 Z " fill="#D85A47" transform="translate(30.395263671875,5.693603515625)"/>
<path d="M0 0 C5.05206534 3.12169103 8.83767711 7.08105292 10.3125 12.875 C10.35375 13.720625 10.395 14.56625 10.4375 15.4375 C6.71049061 15.78449743 3.15077301 15.97868409 -0.5625 15.4375 C-3.125 12.5 -3.125 12.5 -4.5625 9.4375 C-8.52148442 7.45800779 -13.25779938 7.87844797 -17.5625 8.4375 C-21.23522351 11.08186093 -22.7784585 13.06377827 -23.5625 17.4375 C-24.04930116 24.59909405 -24.47891126 31.22526146 -20.5625 37.4375 C-17.19509348 40.42006006 -14.04839098 40.98036483 -9.55859375 40.78515625 C-6.12065301 40.18637596 -4.11718913 38.74888541 -1.5625 36.4375 C-0.13470726 33.32814982 -0.13470726 33.32814982 0.4375 30.4375 C-3.1925 30.4375 -6.8225 30.4375 -10.5625 30.4375 C-10.5625 27.7975 -10.5625 25.1575 -10.5625 22.4375 C-3.6325 22.4375 3.2975 22.4375 10.4375 22.4375 C11.15242875 37.30801793 11.15242875 37.30801793 6.9296875 42.890625 C1.89922649 48.10544845 -4.07947923 50.7122512 -11.25 50.875 C-18.28665185 50.74501259 -23.8672693 48.67082686 -29.1875 44.015625 C-34.61876462 38.00243917 -36.06287782 31.72485548 -35.9375 23.9375 C-35.94910156 23.21691406 -35.96070312 22.49632813 -35.97265625 21.75390625 C-35.92994513 13.88082396 -33.1979015 8.0729015 -27.5625 2.4375 C-20.30624642 -3.37830622 -8.32351336 -3.70468514 0 0 Z " fill="#080808" transform="translate(100.5625,44.5625)"/>
<path d="M0 0 C3.48107367 2.1462829 5.5033958 4.68141225 7.3125 8.375 C7.3125 10.025 7.3125 11.675 7.3125 13.375 C4.0125 13.375 0.7125 13.375 -2.6875 13.375 C-3.3475 12.055 -4.0075 10.735 -4.6875 9.375 C-8.71097418 7.5461481 -12.28930719 6.88631191 -16.6875 7.375 C-18.6875 8.375 -18.6875 8.375 -19.6875 10.375 C-19.73260131 12.3744914 -19.73626598 14.37559462 -19.6875 16.375 C-18.07681641 16.75591797 -18.07681641 16.75591797 -16.43359375 17.14453125 C-14.99731802 17.4918659 -13.56112444 17.83954033 -12.125 18.1875 C-11.42052734 18.35314453 -10.71605469 18.51878906 -9.99023438 18.68945312 C3.22156338 21.91629774 3.22156338 21.91629774 7.4296875 27.50390625 C9.25066262 31.36340661 9.00628943 35.24594249 8.3125 39.375 C6.07999665 44.75330352 2.36951381 47.11144052 -2.76953125 49.45703125 C-9.43382019 51.55356124 -16.74596117 51.6304617 -23.1875 48.75 C-26.93057632 46.50257151 -29.28192806 44.01980597 -31.6875 40.375 C-32.5 37 -32.5 37 -32.6875 34.375 C-29.2868628 34.01842833 -26.07451906 33.83937838 -22.6875 34.375 C-21.02083333 36.375 -19.35416667 38.375 -17.6875 40.375 C-12.6030318 41.37686566 -8.19336079 40.95572396 -3.6875 38.375 C-3.6875 36.395 -3.6875 34.415 -3.6875 32.375 C-7.85087895 30.43208982 -11.85642968 29.01464451 -16.3125 27.875 C-22.75839169 26.1643256 -27.00699186 24.15865564 -30.6875 18.375 C-31.84082617 14.2230258 -31.84040891 11.89668922 -30.625 7.75 C-24.62404581 -2.70327505 -10.70126493 -4.88447888 0 0 Z " fill="#090909" transform="translate(50.6875,44.625)"/>
</svg>
