<?xml version="1.0" encoding="UTF-8"?>
<svg version="1.1" xmlns="http://www.w3.org/2000/svg" width="160" height="146">
<path d="M0 0 C52.8 0 105.6 0 160 0 C160 48.18 160 96.36 160 146 C107.2 146 54.4 146 0 146 C0 97.82 0 49.64 0 0 Z " fill="#F8F7F7" transform="translate(0,0)"/>
<path d="M0 0 C52.8 0 105.6 0 160 0 C160 48.18 160 96.36 160 146 C107.2 146 54.4 146 0 146 C0 97.82 0 49.64 0 0 Z M21.1875 23.375 C20.795625 24.24125 20.40375 25.1075 20 26 C19.23178925 27.57006302 19.23178925 27.57006302 18.44805908 29.17184448 C16.80064606 33.04594953 16.58837007 36.70534041 16.64355469 40.87548828 C16.64151031 41.62925751 16.63946594 42.38302673 16.63735962 43.15963745 C16.63437223 45.63011623 16.65276553 48.09991398 16.671875 50.5703125 C16.67493615 52.29710729 16.67680956 54.02390456 16.67755127 55.7507019 C16.68214139 59.36010266 16.69651886 62.96927871 16.71875 66.57861328 C16.74707363 71.19984704 16.75796753 75.82090454 16.7624321 80.44221687 C16.76659257 84.00415804 16.77641464 87.56606383 16.78830719 91.12798691 C16.7939939 92.83199661 16.79875783 94.53600965 16.80257416 96.24002457 C16.8094653 98.62117706 16.82311011 101.00219246 16.83886719 103.38330078 C16.83998505 104.08368469 16.84110291 104.7840686 16.84225464 105.50567627 C16.87390435 109.12540921 17.14758639 112.4785771 18 116 C18.66 116 19.32 116 20 116 C20.061875 116.556875 20.12375 117.11375 20.1875 117.6875 C21.43615702 121.24136999 23.01364387 122.67064222 26 125 C35.73316029 129.26346124 46.65778832 128.4551099 57.04296875 128.43359375 C58.98106569 128.43816259 60.91916101 128.44347024 62.85725403 128.44947815 C66.90091576 128.45837138 70.94437956 128.4560273 74.98803711 128.44604492 C80.15613365 128.43452606 85.32354986 128.45483074 90.49155712 128.48396206 C94.48684482 128.50234482 98.48196981 128.50202803 102.4772892 128.49632454 C104.38258129 128.49617176 106.28788471 128.50217989 108.19313622 128.51461601 C110.85859889 128.52957388 113.52280771 128.5188164 116.18823242 128.50170898 C116.96505371 128.51137695 117.741875 128.52104492 118.54223633 128.53100586 C124.82105745 128.447059 129.95548648 126.66108229 134.72729778 122.49024105 C136.21647443 121.07314799 136.21647443 121.07314799 136 119 C137.32 118.67 138.64 118.34 140 118 C141.08017087 113.63012816 141.13499895 109.37730438 141.11352539 104.9050293 C141.11367142 104.10450638 141.11381744 103.30398346 141.1139679 102.47920227 C141.11327355 99.8441798 141.10550356 97.20922881 141.09765625 94.57421875 C141.09579037 92.74290506 141.09436727 90.91159086 141.09336853 89.08027649 C141.08955672 84.26836765 141.07973785 79.45648916 141.06866455 74.64459229 C141.05842169 69.73116466 141.05386475 64.81773211 141.04882812 59.90429688 C141.03811437 50.26951794 141.02105401 40.6347615 141 31 C140.34 31 139.68 31 139 31 C138.773125 29.948125 138.54625 28.89625 138.3125 27.8125 C136.91183746 22.92990875 133.85295369 20.43152096 129.91035461 17.38562012 C125.82131982 15.43883025 122.22256993 15.56495157 117.74682617 15.58007812 C116.82260361 15.57160858 115.89838104 15.56313904 114.94615173 15.55441284 C111.89495019 15.53104035 108.844253 15.53002091 105.79296875 15.53125 C103.66693419 15.52414758 101.54090155 15.51644847 99.41487122 15.50817871 C94.95873691 15.49473258 90.50277977 15.49316533 86.04663086 15.49902344 C80.34692351 15.50491356 74.64806971 15.47435648 68.94852734 15.43390656 C64.55690461 15.40800479 60.16548657 15.40515453 55.77379799 15.40879822 C53.67311779 15.40710869 51.57242796 15.39748231 49.47182274 15.37965393 C46.52776082 15.35742016 43.58541547 15.36718954 40.64135742 15.38476562 C39.34977722 15.36487076 39.34977722 15.36487076 38.03210449 15.34457397 C31.0338987 15.44123272 25.51274617 17.70743605 21.1875 23.375 Z " fill="#D7422F" transform="translate(0,0)"/>
<path d="M0 0 C2.16796875 1.515625 2.16796875 1.515625 4.1875 3.25 C5.19876953 4.09304687 5.19876953 4.09304687 6.23046875 4.953125 C10.41580412 9.79444009 10.26609064 15.3255829 10.125 21.375 C10.08375 23.89125 10.0425 26.4075 10 29 C3.07 29 -3.86 29 -11 29 C-11.33 23.72 -11.66 18.44 -12 13 C-12.99 13 -13.98 13 -15 13 C-15 30.16 -15 47.32 -15 65 C-14.01 65 -13.02 65 -12 65 C-10.5192152 62.0384304 -10.64685963 59.16493705 -10.4375 55.875 C-10.35371094 54.59367187 -10.26992187 53.31234375 -10.18359375 51.9921875 C-10.09271484 50.51105469 -10.09271484 50.51105469 -10 49 C-11.32 49 -12.64 49 -14 49 C-14 44.38 -14 39.76 -14 35 C-5.75 35 2.5 35 11 35 C11 47.87 11 60.74 11 74 C4.78750615 74.11471573 -1.42132443 74.21427498 -7.6340332 74.2746582 C-9.74776652 74.29982363 -11.86141265 74.33395926 -13.97485352 74.37719727 C-17.01079798 74.43775941 -20.04559362 74.46618909 -23.08203125 74.48828125 C-24.02899368 74.51408768 -24.97595612 74.5398941 -25.95161438 74.56648254 C-28.40017904 74.56753253 -30.6080651 74.52308193 -33 74 C-36.60202572 70.00729533 -37.12190068 65.32221774 -37.14526367 60.09887695 C-37.15164352 59.1271907 -37.15802338 58.15550446 -37.16459656 57.15437317 C-37.16570938 56.10956284 -37.1668222 55.0647525 -37.16796875 53.98828125 C-37.17129715 52.90548386 -37.17462555 51.82268646 -37.17805481 50.70707703 C-37.18311687 48.41482976 -37.18546336 46.12257512 -37.18530273 43.83032227 C-37.18748086 40.34313605 -37.2056214 36.85627053 -37.22460938 33.36914062 C-37.2275452 31.13802191 -37.22952873 28.9069017 -37.23046875 26.67578125 C-37.23765427 25.64109207 -37.24483978 24.60640289 -37.25224304 23.5403595 C-37.2056067 8.57238451 -37.2056067 8.57238451 -33.57609558 4.33930969 C-25.00452227 -2.94450695 -10.0650027 -5.10027915 0 0 Z " fill="#080808" transform="translate(115,34)"/>
<path d="M0 0 C3.28831605 2.6417761 5.23572992 5.28399179 5.84765625 9.484375 C5.97861458 13.82171501 5.8910613 18.14386993 5.84765625 22.484375 C-0.75234375 22.484375 -7.35234375 22.484375 -14.15234375 22.484375 C-14.48234375 18.854375 -14.81234375 15.224375 -15.15234375 11.484375 C-16.47234375 11.154375 -17.79234375 10.824375 -19.15234375 10.484375 C-19.99601983 17.13895903 -19.99601983 17.13895903 -17.9921875 23.2578125 C-15.80830815 25.10098433 -13.53816238 26.34282038 -10.86328125 27.32421875 C-4.70939957 29.95779636 2.75423495 34.83040328 6.13671875 40.734375 C6.75574406 43.39525993 6.84765625 45.74669122 6.84765625 48.484375 C6.9079894 49.95842362 6.97069751 51.43237603 7.03515625 52.90625 C7.08270709 54.51546189 7.12432799 56.12485944 7.16015625 57.734375 C7.17860596 58.50330078 7.19705566 59.27222656 7.21606445 60.06445312 C7.21437256 60.80630859 7.21268066 61.54816406 7.2109375 62.3125 C7.21391846 62.9715332 7.21689941 63.63056641 7.2199707 64.30957031 C6.84765625 66.484375 6.84765625 66.484375 3.84765625 72.484375 C-9.02234375 72.484375 -21.89234375 72.484375 -35.15234375 72.484375 C-39.65234375 64.609375 -39.65234375 64.609375 -39.54296875 61.08203125 C-39.53297852 60.40922119 -39.52298828 59.73641113 -39.51269531 59.04321289 C-39.4762793 58.21942139 -39.43986328 57.39562988 -39.40234375 56.546875 C-39.31984375 53.88625 -39.23734375 51.225625 -39.15234375 48.484375 C-32.88234375 48.484375 -26.61234375 48.484375 -20.15234375 48.484375 C-19.92447917 51.8046875 -19.69661458 55.125 -19.46875 58.4453125 C-19.34149439 61.39956401 -19.34149439 61.39956401 -18.15234375 63.484375 C-17.16234375 63.484375 -16.17234375 63.484375 -15.15234375 63.484375 C-13.40552291 59.99073333 -13.59910067 56.29708633 -14.15234375 52.484375 C-15.82842137 50.11474802 -16.86130689 49.12783827 -19.15234375 47.484375 C-20.01214844 46.85660156 -20.87195313 46.22882813 -21.7578125 45.58203125 C-23.68844911 44.18290593 -25.62336715 42.78966967 -27.5625 41.40234375 C-32.91627132 37.43748444 -38.95965693 32.31627036 -40.15234375 25.484375 C-40.27175213 23.04899944 -40.32759114 20.61014537 -40.33984375 18.171875 C-40.35402344 16.89699219 -40.36820313 15.62210938 -40.3828125 14.30859375 C-40.14561282 10.37268717 -39.52894131 7.17657375 -38.15234375 3.484375 C-35.08984375 1.171875 -35.08984375 1.171875 -32.15234375 -0.515625 C-31.82234375 -1.175625 -31.49234375 -1.835625 -31.15234375 -2.515625 C-21.4678644 -5.40036353 -8.74887212 -4.9993555 0 0 Z " fill="#070707" transform="translate(65.15234375,35.515625)"/>
<path d="M0 0 C52.8 0 105.6 0 160 0 C160 48.18 160 96.36 160 146 C107.2 146 54.4 146 0 146 C0 97.82 0 49.64 0 0 Z M26 2 C26 2.66 26 3.32 26 4 C24.68 4 23.36 4 22 4 C22 4.66 22 5.32 22 6 C20.576875 6.2165625 20.576875 6.2165625 19.125 6.4375 C16.1065506 6.82935399 16.1065506 6.82935399 14 8 C14 8.66 14 9.32 14 10 C13.34 10 12.68 10 12 10 C11.7525 10.5775 11.505 11.155 11.25 11.75 C10 14 10 14 7.875 16.0625 C5.65228929 17.90993327 5.65228929 17.90993327 6 21 C5.34 21 4.68 21 4 21 C0.30910773 30.94866024 0.5611117 40.75949305 0.6015625 51.203125 C0.59953776 53.0539359 0.59662299 54.90474601 0.59286499 56.7555542 C0.5884649 60.61510897 0.59480055 64.47445414 0.60888672 68.33398438 C0.62602546 73.26892283 0.61609314 78.20337339 0.59816933 83.13829422 C0.58730972 86.95253148 0.59078699 90.76665368 0.5985527 94.58089447 C0.6005462 96.40048023 0.5981255 98.22007662 0.59111404 100.03964996 C0.58345815 102.58302891 0.59515898 105.12562444 0.61181641 107.66894531 C0.60574371 108.41195892 0.59967102 109.15497253 0.59341431 109.92050171 C0.65531677 115.0465418 1.76680979 118.49150222 4 123 C4.66 123 5.32 123 6 123 C6.061875 123.70125 6.12375 124.4025 6.1875 125.125 C7.30780571 129.08915867 9.16066526 131.02216113 12 134 C12.66 134 13.32 134 14 134 C14.3403125 134.9590625 14.3403125 134.9590625 14.6875 135.9375 C15.85250896 138.27193661 15.85250896 138.27193661 18.625 138.75 C19.40875 138.8325 20.1925 138.915 21 139 C21 139.66 21 140.32 21 141 C27.23365137 143.73099874 32.23141518 144.42192047 38.99609375 144.34057617 C39.96286545 144.34101425 40.92963715 144.34145233 41.92570496 144.34190369 C45.09651432 144.33982662 48.26678388 144.3165466 51.4375 144.29296875 C53.64566764 144.28736895 55.85383901 144.28310067 58.06201172 144.28010559 C63.85543221 144.2686871 69.64862473 144.23924562 75.44195557 144.20599365 C81.36101193 144.17522817 87.28010536 144.16158642 93.19921875 144.14648438 C104.79957897 144.11437312 116.39977048 144.06321299 128 144 C128 143.34 128 142.68 128 142 C129.0725 141.87625 130.145 141.7525 131.25 141.625 C134.37863615 141.10356064 136.33480424 140.59911746 139 139 C139 138.34 139 137.68 139 137 C139.680625 136.79375 140.36125 136.5875 141.0625 136.375 C144.99330912 134.5350468 148.1367966 132.27966935 151 129 C152.27765265 125.36456099 152.27765265 125.36456099 153 122 C153.99 121.34 154.98 120.68 156 120 C157.39105766 115.67451021 157.16826779 111.10862335 157.19287109 106.60473633 C157.20104858 105.77150848 157.20922607 104.93828064 157.21765137 104.07980347 C157.24240131 101.33055318 157.25899553 98.58135421 157.2734375 95.83203125 C157.28142302 94.41788217 157.28142302 94.41788217 157.28956985 92.97516441 C157.3162575 87.98402089 157.33564555 82.99290199 157.35009766 78.00170898 C157.36342683 73.88429501 157.39126714 69.76737779 157.43212891 65.65014648 C157.48159731 60.66466416 157.50623587 55.67963165 157.51332474 50.69391441 C157.52001214 48.80139945 157.53516825 46.90889354 157.55921555 45.01651955 C157.85717355 30.7526007 157.85717355 30.7526007 152 18 C151.49262299 17.24535965 150.98524597 16.4907193 150.4624939 15.71321106 C144.67609816 7.34062753 138.07848728 2.84611458 128 1 C120.6257286 0.28543811 113.18403479 0.5088323 105.78515625 0.57421875 C103.63952438 0.57915052 101.49388818 0.58244427 99.34825134 0.58418274 C94.87419667 0.59178603 90.40046612 0.61224081 85.92651367 0.64331055 C80.19451321 0.68305084 74.46272202 0.70095143 68.7305994 0.71061993 C63.24875684 0.72058899 57.76696494 0.74045342 52.28515625 0.76171875 C50.72131038 0.76681237 50.72131038 0.76681237 49.12587166 0.7720089 C46.17768446 0.7835933 43.22962838 0.80211211 40.28149414 0.82299805 C38.97620506 0.8270314 38.97620506 0.8270314 37.64454651 0.83114624 C33.63470211 0.86675689 29.91303069 1.00347915 26 2 Z " fill="#FDFBFA" transform="translate(0,0)"/>
<path d="M0 0 C42.24 0 84.48 0 128 0 C128 0.33 128 0.66 128 1 C77.51 1.495 77.51 1.495 26 2 C26 2.66 26 3.32 26 4 C24.68 4 23.36 4 22 4 C22 4.66 22 5.32 22 6 C19.36 6.66 16.72 7.32 14 8 C14 8.66 14 9.32 14 10 C13.34 10 12.68 10 12 10 C11.731875 10.763125 11.46375 11.52625 11.1875 12.3125 C10.03396359 14.92313504 9.01370135 16.07385089 7 18 C6.67 18.99 6.34 19.98 6 21 C5.34 21 4.68 21 4 21 C3.855625 22.258125 3.71125 23.51625 3.5625 24.8125 C3.26251314 27.42667123 2.84186703 29.47439892 2 32 C1.89862761 34.65546374 1.85316038 37.28475375 1.85473633 39.94042969 C1.85137772 40.74892365 1.8480191 41.5574176 1.84455872 42.39041138 C1.83504778 45.06758149 1.83310532 47.74468903 1.83203125 50.421875 C1.82881801 52.28411892 1.82545389 54.14636258 1.82194519 56.00860596 C1.81595303 59.9158995 1.8141053 63.82317093 1.81469727 67.73046875 C1.81479872 72.72830357 1.80116421 77.72599578 1.78392506 82.72379684 C1.77278388 86.57233323 1.77077873 90.42083543 1.77130699 94.26938629 C1.77012939 96.11130514 1.76571998 97.95322493 1.75797462 99.79512787 C1.74813505 102.37751615 1.75106873 104.95959858 1.75708008 107.54199219 C1.75146057 108.29757416 1.74584106 109.05315613 1.74005127 109.83163452 C1.76801476 114.57884764 2.50490764 118.48903293 4 123 C4.66 123 5.32 123 6 123 C6.23074219 123.51949219 6.46148438 124.03898437 6.69921875 124.57421875 C10.01081256 131.655532 13.71134127 135.77942986 21 139 C21 139.66 21 140.32 21 141 C21.94875 141.144375 22.8975 141.28875 23.875 141.4375 C27 142 27 142 29 143 C30.33004516 143.10290671 31.66496404 143.14639842 32.99893188 143.15821838 C33.83468246 143.1680072 34.67043304 143.17779602 35.5315094 143.18788147 C36.45004196 143.19363693 37.36857452 143.1993924 38.31494141 143.20532227 C39.28083694 143.21522186 40.24673248 143.22512146 41.24189758 143.23532104 C44.44509401 143.26699216 47.64830528 143.29171565 50.8515625 143.31640625 C53.06831251 143.33697093 55.28505855 143.35796727 57.50180054 143.37937927 C63.34449051 143.43465012 69.18721616 143.48403727 75.02996826 143.53222656 C80.98876125 143.58240502 86.94750225 143.63811014 92.90625 143.69335938 C104.60412228 143.80100226 116.30203965 143.90243359 128 144 C128 143.34 128 142.68 128 142 C132.455 141.01 132.455 141.01 137 140 C131.72073096 145.27926904 127.02795492 145.30079792 119.92822266 145.31884766 C119.02143768 145.32889328 118.11465271 145.3389389 117.1803894 145.34928894 C114.17495316 145.38021187 111.16960802 145.39721688 108.1640625 145.4140625 C106.04828164 145.43281343 103.93250795 145.45238962 101.81674194 145.4727478 C96.22272175 145.52417622 90.62867611 145.56366345 85.0345459 145.60089111 C80.56292739 145.63250991 76.09139971 145.67219167 71.61985207 145.71247292 C47.74577106 145.92722092 23.8761348 146 0 146 C0 97.82 0 49.64 0 0 Z " fill="#FAF1F0" transform="translate(0,0)"/>
<path d="M0 0 C1.98 0.495 1.98 0.495 4 1 C4 6.28 4 11.56 4 17 C3.67 17 3.34 17 3 17 C3 12.05 3 7.1 3 2 C2.01 2 1.02 2 0 2 C0.03029297 2.56283691 0.06058594 3.12567383 0.09179688 3.70556641 C0.68040416 14.814397 1.16831419 25.87256164 1 37 C2.32 37 3.64 37 5 37 C5.05398987 39.27057377 5.09278742 41.54151288 5.125 43.8125 C5.14820312 45.07707031 5.17140625 46.34164062 5.1953125 47.64453125 C5 51 5 51 3 54 C1.68 53.67 0.36 53.34 -1 53 C-1.02526692 45.61271898 -1.0428316 38.22544902 -1.05493164 30.83813477 C-1.05997363 28.32283105 -1.06680703 25.80753028 -1.07543945 23.29223633 C-1.08751094 19.68570225 -1.09322949 16.07920677 -1.09765625 12.47265625 C-1.10281754 11.34038101 -1.10797882 10.20810577 -1.11329651 9.04151917 C-1.11337204 8.00051559 -1.11344757 6.95951202 -1.11352539 5.88696289 C-1.115746 4.96540909 -1.11796661 4.04385529 -1.12025452 3.09437561 C-1 1 -1 1 0 0 Z " fill="#C1C1C1" transform="translate(100,46)"/>
<path d="M0 0 C12.43045592 -0.06949495 24.86086566 -0.12280882 37.29147625 -0.15543652 C43.06344652 -0.17109577 48.83528393 -0.19233903 54.60717773 -0.22631836 C60.1768455 -0.25890217 65.74638541 -0.27685106 71.31614113 -0.28463173 C73.44162827 -0.29017696 75.56710837 -0.30100536 77.69254112 -0.31719017 C80.66847254 -0.33895116 83.64387493 -0.34196745 86.61987305 -0.34057617 C87.93941483 -0.35675491 87.93941483 -0.35675491 89.28561401 -0.3732605 C94.04457436 -0.34916874 97.08536773 -0.02476577 101 3 C98.29304896 4.04113502 97.18736238 4.06994179 94.42196655 3.03762817 C90.13173343 1.73671927 86.3273636 1.73476438 81.87353516 1.77294922 C80.97533051 1.77265717 80.07712585 1.77236511 79.15170288 1.77206421 C76.19738947 1.77345207 73.24333159 1.78898768 70.2890625 1.8046875 C68.23497658 1.80841956 66.18088888 1.81126562 64.12680054 1.81326294 C58.73125254 1.82088417 53.33581292 1.84051973 47.94030762 1.8626709 C42.43027207 1.88316184 36.92021895 1.8922716 31.41015625 1.90234375 C20.60672333 1.92376702 9.80337069 1.95788476 -1 2 C-0.67 1.34 -0.34 0.68 0 0 Z " fill="#DBACA5" transform="translate(31,16)"/>
<path d="M0 0 C2.08133467 3.122002 2.2737822 3.93266989 2.25 7.5 C2.25515625 8.2734375 2.2603125 9.046875 2.265625 9.84375 C2 12 2 12 0 15 C-1.9375 14.625 -1.9375 14.625 -4 14 C-6.13079691 9.73840618 -5.04502317 3.59236298 -5 -1 C-11.27 -1 -17.54 -1 -24 -1 C-24 -1.33 -24 -1.66 -24 -2 C-20.93793523 -2.24941254 -17.87716917 -2.47514145 -14.8125 -2.6875 C-13.51602539 -2.79674805 -13.51602539 -2.79674805 -12.19335938 -2.90820312 C-7.2551715 -3.22984755 -3.96691772 -3.366103 0 0 Z " fill="#A7A7A7" transform="translate(50,85)"/>
<path d="M0 0 C0.94398651 0.31593864 0.94398651 0.31593864 1.90704346 0.63825989 C12.03178248 3.62097373 21.96671432 3.47755252 32.421875 3.51171875 C34.37771715 3.52859308 36.33354864 3.54674696 38.28936768 3.56611633 C43.39868842 3.61332359 48.50796592 3.64332144 53.61743164 3.66955566 C58.84660377 3.69951001 64.07562728 3.7459887 69.3046875 3.79101562 C79.53638012 3.8767151 89.7681036 3.94420759 100 4 C100 4.33 100 4.66 100 5 C87.99523831 5.06956859 75.99052474 5.12284623 63.98560238 5.15543652 C58.41098335 5.17107971 52.83650244 5.19229362 47.26196289 5.22631836 C41.88031726 5.25895948 36.49880433 5.27686314 31.11706734 5.28463173 C29.06580072 5.29016667 27.01454121 5.30097509 24.96333122 5.31719017 C22.08599128 5.33902741 19.20919684 5.34196427 16.33178711 5.34057617 C15.48733536 5.351362 14.64288361 5.36214783 13.77284241 5.3732605 C8.43803371 5.34548669 4.76807566 4.4172754 0 2 C0 1.34 0 0.68 0 0 Z " fill="#E69087" transform="translate(25,124)"/>
<path d="M0 0 C2 1 2 1 2.62109375 2.640625 C3.43312627 7.69699244 3.05101778 12.89822197 3 18 C-3.6 18 -10.2 18 -17 18 C-17.33 14.04 -17.66 10.08 -18 6 C-17.34 6 -16.68 6 -16 6 C-16 9.3 -16 12.6 -16 16 C-10.39 16 -4.78 16 1 16 C0.67 10.72 0.34 5.44 0 0 Z " fill="#353535" transform="translate(68,40)"/>
<path d="M0 0 C1.65 0 3.3 0 5 0 C5.02692484 2.29160319 5.04636124 4.58329546 5.0625 6.875 C5.07410156 8.15117188 5.08570312 9.42734375 5.09765625 10.7421875 C5 14 5 14 4 16 C2.68 15.67 1.36 15.34 0 15 C0 10.05 0 5.1 0 0 Z " fill="#EAEAEA" transform="translate(100,83)"/>
<path d="M0 0 C1.65 0.33 3.3 0.66 5 1 C5.05391993 2.79133978 5.09275571 4.58313899 5.125 6.375 C5.14820313 7.37273438 5.17140625 8.37046875 5.1953125 9.3984375 C5 12 5 12 3 14 C1 13.0625 1 13.0625 -1 11 C-1.52917873 7.24764173 -1.71569886 3.43139773 0 0 Z " fill="#D3D3D3" transform="translate(46,46)"/>
<path d="M0 0 C0.99 0 1.98 0 3 0 C3 4.29 3 8.58 3 13 C2.01 13 1.02 13 0 13 C0 8.71 0 4.42 0 0 Z " fill="#FAFAFA" transform="translate(47,85)"/>
<path d="M0 0 C2.89640118 -0.08120751 5.79050912 -0.14059421 8.6875 -0.1875 C9.50412109 -0.21263672 10.32074219 -0.23777344 11.16210938 -0.26367188 C15.97846486 -0.32217012 19.03975154 -0.07302376 23 3 C20.25061193 4.05745695 19.11926223 4.04112491 16.28125 3.0625 C12.80619308 1.93724347 9.76327456 1.5977515 6.125 1.375 C4.97257812 1.30023437 3.82015625 1.22546875 2.6328125 1.1484375 C1.32957031 1.07496094 1.32957031 1.07496094 0 1 C0 0.67 0 0.34 0 0 Z " fill="#E9A59C" transform="translate(109,16)"/>
<path d="M0 0 C0.66 0.33 1.32 0.66 2 1 C0.87895467 2.31587941 -0.24696965 3.62760353 -1.375 4.9375 C-2.00148438 5.66839844 -2.62796875 6.39929688 -3.2734375 7.15234375 C-5 9 -5 9 -7 10 C-7.33 10.99 -7.66 11.98 -8 13 C-8.66 13 -9.32 13 -10 13 C-8.8006207 9.58638198 -7.66702528 7.43511004 -5 5 C-4.67 4.34 -4.34 3.68 -4 3 C-3.34 3 -2.68 3 -2 3 C-2 2.34 -2 1.68 -2 1 C-1.34 0.67 -0.68 0.34 0 0 Z " fill="#D96F64" transform="translate(16,7)"/>
<path d="M0 0 C0.33 0.66 0.66 1.32 1 2 C-0.26886964 3.12721436 -1.54017562 4.25168658 -2.8125 5.375 C-3.52019531 6.00148438 -4.22789063 6.62796875 -4.95703125 7.2734375 C-7 9 -7 9 -10 11 C-9.39007871 7.72167308 -8.75107508 5.59319603 -6.0859375 3.48828125 C-4.08733538 2.25592765 -2.07816798 1.09224643 0 0 Z " fill="#313131" transform="translate(89,34)"/>
<path d="M0 0 C0.66 0.33 1.32 0.66 2 1 C1.4375 3.3125 1.4375 3.3125 0 6 C-5.8125 9.22916667 -5.8125 9.22916667 -9.2265625 8.5703125 C-9.81179687 8.38210937 -10.39703125 8.19390625 -11 8 C-10.45730469 7.75765625 -9.91460937 7.5153125 -9.35546875 7.265625 C-3.80914453 4.69107324 -3.80914453 4.69107324 0 0 Z " fill="#D47D73" transform="translate(136,119)"/>
<path d="M0 0 C1.98 0.99 1.98 0.99 4 2 C3.01 2.495 3.01 2.495 2 3 C2 5.97 2 8.94 2 12 C1.67 12 1.34 12 1 12 C0.67 8.04 0.34 4.08 0 0 Z " fill="#C8C8C8" transform="translate(45,82)"/>
</svg>
